<svg xmlns="http://www.w3.org/2000/svg" version="1.1" xmlns:xlink="http://www.w3.org/1999/xlink" xmlns:svgjs="http://svgjs.dev/svgjs" width="128" height="128" viewBox="0 0 128 128"><g transform="matrix(0.8046875,0,0,0.8046875,12.827144742201583,12.926639311916645)"><svg viewBox="0 0 59 59" data-background-color="#fffbf4" preserveAspectRatio="xMidYMid meet" height="128" width="128" xmlns="http://www.w3.org/2000/svg" xmlns:xlink="http://www.w3.org/1999/xlink"><g id="tight-bounds" transform="matrix(1,0,0,1,-0.003629000000003657,-0.003629000000003657)"><svg viewBox="0 0 59.00725799999999 59.00725799999999" height="59.00725799999999" width="59.00725799999999"><g><svg viewBox="0 0 59.00725799999999 59.00725799999999" height="59.00725799999999" width="59.00725799999999"><g><svg viewBox="0 0 59.00725799999999 59.00725799999999" height="59.00725799999999" width="59.00725799999999"><g><svg viewBox="0 0 59.00725799999999 59.00725799999999" height="59.00725799999999" width="59.00725799999999"><g id="textblocktransform"><svg viewBox="0 0 59.00725799999999 59.00725799999999" height="59.00725799999999" width="59.00725799999999" id="textblock"><g><svg viewBox="0 0 59.00725799999999 59.00725799999999" height="59.00725799999999" width="59.00725799999999"><g><svg viewBox="0 0 59.00725799999999 59.00725799999999" height="59.00725799999999" width="59.00725799999999"><g><svg xmlns="http://www.w3.org/2000/svg" viewBox="2 2 60 60" x="0" y="0" height="59.00725799999999" width="59.00725799999999" class="icon-icon-0" data-fill-palette-color="accent" id="icon-0"><g fill="#ff4993" data-fill-palette-color="accent"><path d="M61 5H58V3a1 1 0 0 0-1-1H39a4.982 4.982 0 0 0-4 2.031A4.982 4.982 0 0 0 31 2H13a1 1 0 0 0-1 1V5H9A1 1 0 0 0 8 6V23h2V7h2V21h2V4H31a3 3 0 0 1 3 3V20h2V7a3 3 0 0 1 3-3H56V34H51v2h6a1 1 0 0 0 1-1V7h2V38H52v2h9a1 1 0 0 0 1-1V6A1 1 0 0 0 61 5Z" fill="#ff4993" data-fill-palette-color="accent"></path><path d="M11 54H26.5l5.7 7.6a1 1 0 0 0 0.8 0.4h8a9.011 9.011 0 0 0 9-9V41A19.021 19.021 0 0 0 31 22H21A19.021 19.021 0 0 0 2 41v4A9.011 9.011 0 0 0 11 54Zm22.5 6L29 54h4.5L38 60Zm13.817-4H37.5L36 54H47.929A6.948 6.948 0 0 1 47.317 56ZM40.5 60L39 58h6.885A6.968 6.968 0 0 1 41 60ZM4 41a17.138 17.138 0 0 1 0.128-2H7V37H4.5A17.033 17.033 0 0 1 17 24.5V29h2V24.128A17.138 17.138 0 0 1 21 24h4v7a3 3 0 0 1-3 3H16a4.908 4.908 0 0 0-1.356 0.211A6.2 6.2 0 0 1 13 30H11a8.18 8.18 0 0 0 1.825 5.17A4.969 4.969 0 0 0 11 39v5.085A6.616 6.616 0 0 0 7.293 45.95l1.414 1.414a4.662 4.662 0 0 1 6.586 0l1.414-1.414A6.616 6.616 0 0 0 13 44.085V39a3 3 0 0 1 3-3h1.067a8.174 8.174 0 0 0 2.347 4.828l0.379 0.379 1.414-1.414-0.379-0.379A6.2 6.2 0 0 1 19.086 36H22a5.006 5.006 0 0 0 5-5V24h4a16.894 16.894 0 0 1 10.174 3.412l-2.881 2.881 1.414 1.414 3-3A17.031 17.031 0 0 1 46.474 34H38a3 3 0 0 1-3-3V29H33v2a5.006 5.006 0 0 0 5 5h9.247A16.932 16.932 0 0 1 48 41V52H32V48H30v4H24a3 3 0 0 1-3-3V47a3 3 0 0 1 3-3H37.429a6.609 6.609 0 0 0 1.864 3.707l1.414-1.414a4.664 4.664 0 0 1 0-6.586l-1.414-1.414A6.609 6.609 0 0 0 37.429 42h-6.3a4.647 4.647 0 0 1 0.239-6.293L29.95 34.293A6.665 6.665 0 0 0 28.718 42H24a5.006 5.006 0 0 0-5 5v2a4.948 4.948 0 0 0 1.026 3H11a7.008 7.008 0 0 1-7-7Z" fill="#ff4993" data-fill-palette-color="accent"></path><rect x="39" y="8" width="14" height="2" fill="#ff4993" data-fill-palette-color="accent"></rect><rect x="39" y="13" width="8" height="2" fill="#ff4993" data-fill-palette-color="accent"></rect><rect x="49" y="13" width="4" height="2" fill="#ff4993" data-fill-palette-color="accent"></rect><rect x="39" y="18" width="14" height="2" fill="#ff4993" data-fill-palette-color="accent"></rect><rect x="44" y="23" width="9" height="2" fill="#ff4993" data-fill-palette-color="accent"></rect><rect x="49" y="28" width="4" height="2" fill="#ff4993" data-fill-palette-color="accent"></rect><rect x="17" y="8" width="14" height="2" fill="#ff4993" data-fill-palette-color="accent"></rect><rect x="17" y="13" width="10" height="2" fill="#ff4993" data-fill-palette-color="accent"></rect><rect x="29" y="13" width="2" height="2" fill="#ff4993" data-fill-palette-color="accent"></rect><rect x="17" y="18" width="4" height="2" fill="#ff4993" data-fill-palette-color="accent"></rect><rect x="23" y="18" width="8" height="2" fill="#ff4993" data-fill-palette-color="accent"></rect></g></svg></g></svg></g></svg></g></svg></g></svg></g></svg></g></svg></g><defs></defs></svg><rect width="59.00725799999999" height="59.00725799999999" fill="none" stroke="none" visibility="hidden"></rect></g></svg></g></svg>