<svg xmlns="http://www.w3.org/2000/svg" version="1.1" xmlns:xlink="http://www.w3.org/1999/xlink" xmlns:svgjs="http://svgjs.dev/svgjs" width="2000" height="429" viewBox="0 0 2000 429"><g transform="matrix(1,0,0,1,26.84474163609002,9.222422513797085)"><svg viewBox="0 0 396 85" data-background-color="#fffbf4" preserveAspectRatio="xMidYMid meet" height="429" width="2000" xmlns="http://www.w3.org/2000/svg" xmlns:xlink="http://www.w3.org/1999/xlink"><g id="tight-bounds" transform="matrix(1,0,0,1,0.2698442641605254,-0.08123693090254847)"><svg viewBox="0 0 395.5199999999999 85.25907600398361" height="85.25907600398361" width="395.5199999999999"><g><svg viewBox="0 0 395.5199999999999 85.25907600398361" height="85.25907600398361" width="395.5199999999999"><g><svg viewBox="0 0 524.5879110000001 113.081211" height="85.25907600398361" width="395.5199999999999"><g><svg viewBox="0 0 524.5879110000001 113.081211" height="113.081211" width="524.5879110000001"><g id="textblocktransform"><svg viewBox="0 0 524.5879110000001 113.081211" height="113.081211" width="524.5879110000001" id="textblock"><g><svg viewBox="0 0 524.5879110000001 113.081211" height="113.081211" width="524.5879110000001"><g><svg><g></g><g></g></svg></g><g><svg><g></g><g><svg></svg></g></svg></g><g id="text-0"><svg viewBox="0 0 524.5879110000001 113.081211" height="113.081211" width="524.5879110000001"><g><svg xmlns="http://www.w3.org/2000/svg" viewBox="2 2 60 60" x="0" y="0" height="113.081211" width="113.081211" class="icon-cg-0" data-fill-palette-color="accent" id="cg-0"><g fill="#ff4993" data-fill-palette-color="accent"><path d="M61 5H58V3a1 1 0 0 0-1-1H39a4.982 4.982 0 0 0-4 2.031A4.982 4.982 0 0 0 31 2H13a1 1 0 0 0-1 1V5H9A1 1 0 0 0 8 6V23h2V7h2V21h2V4H31a3 3 0 0 1 3 3V20h2V7a3 3 0 0 1 3-3H56V34H51v2h6a1 1 0 0 0 1-1V7h2V38H52v2h9a1 1 0 0 0 1-1V6A1 1 0 0 0 61 5Z" fill="#ff4993" data-fill-palette-color="accent"></path><path d="M11 54H26.5l5.7 7.6a1 1 0 0 0 0.8 0.4h8a9.011 9.011 0 0 0 9-9V41A19.021 19.021 0 0 0 31 22H21A19.021 19.021 0 0 0 2 41v4A9.011 9.011 0 0 0 11 54Zm22.5 6L29 54h4.5L38 60Zm13.817-4H37.5L36 54H47.929A6.948 6.948 0 0 1 47.317 56ZM40.5 60L39 58h6.885A6.968 6.968 0 0 1 41 60ZM4 41a17.138 17.138 0 0 1 0.128-2H7V37H4.5A17.033 17.033 0 0 1 17 24.5V29h2V24.128A17.138 17.138 0 0 1 21 24h4v7a3 3 0 0 1-3 3H16a4.908 4.908 0 0 0-1.356 0.211A6.2 6.2 0 0 1 13 30H11a8.18 8.18 0 0 0 1.825 5.17A4.969 4.969 0 0 0 11 39v5.085A6.616 6.616 0 0 0 7.293 45.95l1.414 1.414a4.662 4.662 0 0 1 6.586 0l1.414-1.414A6.616 6.616 0 0 0 13 44.085V39a3 3 0 0 1 3-3h1.067a8.174 8.174 0 0 0 2.347 4.828l0.379 0.379 1.414-1.414-0.379-0.379A6.2 6.2 0 0 1 19.086 36H22a5.006 5.006 0 0 0 5-5V24h4a16.894 16.894 0 0 1 10.174 3.412l-2.881 2.881 1.414 1.414 3-3A17.031 17.031 0 0 1 46.474 34H38a3 3 0 0 1-3-3V29H33v2a5.006 5.006 0 0 0 5 5h9.247A16.932 16.932 0 0 1 48 41V52H32V48H30v4H24a3 3 0 0 1-3-3V47a3 3 0 0 1 3-3H37.429a6.609 6.609 0 0 0 1.864 3.707l1.414-1.414a4.664 4.664 0 0 1 0-6.586l-1.414-1.414A6.609 6.609 0 0 0 37.429 42h-6.3a4.647 4.647 0 0 1 0.239-6.293L29.95 34.293A6.665 6.665 0 0 0 28.718 42H24a5.006 5.006 0 0 0-5 5v2a4.948 4.948 0 0 0 1.026 3H11a7.008 7.008 0 0 1-7-7Z" fill="#ff4993" data-fill-palette-color="accent"></path><rect x="39" y="8" width="14" height="2" fill="#ff4993" data-fill-palette-color="accent"></rect><rect x="39" y="13" width="8" height="2" fill="#ff4993" data-fill-palette-color="accent"></rect><rect x="49" y="13" width="4" height="2" fill="#ff4993" data-fill-palette-color="accent"></rect><rect x="39" y="18" width="14" height="2" fill="#ff4993" data-fill-palette-color="accent"></rect><rect x="44" y="23" width="9" height="2" fill="#ff4993" data-fill-palette-color="accent"></rect><rect x="49" y="28" width="4" height="2" fill="#ff4993" data-fill-palette-color="accent"></rect><rect x="17" y="8" width="14" height="2" fill="#ff4993" data-fill-palette-color="accent"></rect><rect x="17" y="13" width="10" height="2" fill="#ff4993" data-fill-palette-color="accent"></rect><rect x="29" y="13" width="2" height="2" fill="#ff4993" data-fill-palette-color="accent"></rect><rect x="17" y="18" width="4" height="2" fill="#ff4993" data-fill-palette-color="accent"></rect><rect x="23" y="18" width="8" height="2" fill="#ff4993" data-fill-palette-color="accent"></rect></g></svg></g><g transform="matrix(1,0,0,1,129.067911,31.657093774203243)"><svg width="395.52000000000004" viewBox="1.7 -41.45 332.58 41.85" height="49.76702345159351" data-palette-color="#3d4950"><path d="M8.1-30.45Q5.2-30.45 3.45-32 1.7-33.55 1.7-35.9L1.7-35.9Q1.7-38.3 3.45-39.88 5.2-41.45 8.1-41.45L8.1-41.45Q10.95-41.45 12.7-39.88 14.45-38.3 14.45-35.9L14.45-35.9Q14.45-33.55 12.7-32 10.95-30.45 8.1-30.45L8.1-30.45ZM2.5-28.2L13.6-28.2 13.6 0 2.5 0 2.5-28.2ZM32.45 0.35Q26.1 0.35 21.97-2.63 17.85-5.6 17.5-11.35L17.5-11.35 29.3-11.35Q29.55-8.3 32-8.3L32-8.3Q32.9-8.3 33.52-8.72 34.15-9.15 34.15-10.05L34.15-10.05Q34.15-11.3 32.8-12.08 31.45-12.85 28.6-13.85L28.6-13.85Q25.2-15.05 22.97-16.2 20.75-17.35 19.15-19.55 17.55-21.75 17.6-25.2L17.6-25.2Q17.6-28.65 19.37-31.08 21.15-33.5 24.22-34.75 27.3-36 31.15-36L31.15-36Q37.65-36 41.47-33 45.3-30 45.5-24.55L45.5-24.55 33.55-24.55Q33.5-26.05 32.8-26.7 32.1-27.35 31.1-27.35L31.1-27.35Q30.4-27.35 29.95-26.88 29.5-26.4 29.5-25.55L29.5-25.55Q29.5-24.35 30.82-23.58 32.15-22.8 35.05-21.7L35.05-21.7Q38.4-20.45 40.57-19.3 42.75-18.15 44.35-16.1 45.95-14.05 45.95-10.95L45.95-10.95Q45.95-7.7 44.35-5.13 42.75-2.55 39.7-1.1 36.65 0.35 32.45 0.35L32.45 0.35ZM68.59-28.2L79.69-28.2 79.69 0 68.59 0 68.59-4.3Q67.3-2.3 65.12-1.05 62.95 0.2 59.95 0.2L59.95 0.2Q55.09 0.2 52.37-3.05 49.64-6.3 49.64-11.85L49.64-11.85 49.64-28.2 60.7-28.2 60.7-13.25Q60.7-11.25 61.77-10.08 62.84-8.9 64.64-8.9L64.64-8.9Q66.5-8.9 67.55-10.08 68.59-11.25 68.59-13.25L68.59-13.25 68.59-28.2ZM122.34-28.4Q127.74-28.4 130.72-25.15 133.69-21.9 133.69-16.35L133.69-16.35 133.69 0 122.64 0 122.64-14.95Q122.64-16.75 121.57-17.78 120.49-18.8 118.69-18.8L118.69-18.8Q116.84-18.8 115.79-17.78 114.74-16.75 114.74-14.95L114.74-14.95 114.74 0 103.69 0 103.69-14.95Q103.69-16.75 102.62-17.78 101.54-18.8 99.74-18.8L99.74-18.8Q97.89-18.8 96.84-17.78 95.79-16.75 95.79-14.95L95.79-14.95 95.79 0 84.69 0 84.69-28.2 95.79-28.2 95.79-24.4Q96.99-26.2 99.07-27.3 101.14-28.4 103.94-28.4L103.94-28.4Q106.99-28.4 109.34-27.08 111.69-25.75 113.09-23.35L113.09-23.35Q114.64-25.55 117.04-26.98 119.44-28.4 122.34-28.4L122.34-28.4ZM176.14-28.4Q181.54-28.4 184.52-25.15 187.49-21.9 187.49-16.35L187.49-16.35 187.49 0 176.44 0 176.44-14.95Q176.44-16.75 175.37-17.78 174.29-18.8 172.49-18.8L172.49-18.8Q170.64-18.8 169.59-17.78 168.54-16.75 168.54-14.95L168.54-14.95 168.54 0 157.49 0 157.49-14.95Q157.49-16.75 156.42-17.78 155.34-18.8 153.54-18.8L153.54-18.8Q151.69-18.8 150.64-17.78 149.59-16.75 149.59-14.95L149.59-14.95 149.59 0 138.49 0 138.49-28.2 149.59-28.2 149.59-24.4Q150.79-26.2 152.87-27.3 154.94-28.4 157.74-28.4L157.74-28.4Q160.79-28.4 163.14-27.08 165.49-25.75 166.89-23.35L166.89-23.35Q168.44-25.55 170.84-26.98 173.24-28.4 176.14-28.4L176.14-28.4ZM190.79-14.1Q190.79-18.55 192.31-21.83 193.84-25.1 196.49-26.83 199.14-28.55 202.44-28.55L202.44-28.55Q205.19-28.55 207.19-27.43 209.19-26.3 210.24-24.35L210.24-24.35 210.24-28.2 221.29-28.2 221.29 0 210.24 0 210.24-3.85Q209.19-1.9 207.19-0.78 205.19 0.35 202.44 0.35L202.44 0.35Q199.14 0.35 196.49-1.38 193.84-3.1 192.31-6.38 190.79-9.65 190.79-14.1L190.79-14.1ZM210.24-14.1Q210.24-16.35 209.09-17.6 207.94-18.85 206.14-18.85L206.14-18.85Q204.34-18.85 203.19-17.6 202.04-16.35 202.04-14.1L202.04-14.1Q202.04-11.85 203.19-10.6 204.34-9.35 206.14-9.35L206.14-9.35Q207.94-9.35 209.09-10.6 210.24-11.85 210.24-14.1L210.24-14.1ZM237.39-23Q239.09-25.45 241.54-26.93 243.99-28.4 246.64-28.4L246.64-28.4 246.64-16.55 243.49-16.55Q240.34-16.55 238.86-15.45 237.39-14.35 237.39-11.55L237.39-11.55 237.39 0 226.29 0 226.29-28.2 237.39-28.2 237.39-23ZM255.23-30.45Q252.33-30.45 250.58-32 248.83-33.55 248.83-35.9L248.83-35.9Q248.83-38.3 250.58-39.88 252.33-41.45 255.23-41.45L255.23-41.45Q258.08-41.45 259.83-39.88 261.58-38.3 261.58-35.9L261.58-35.9Q261.58-33.55 259.83-32 258.08-30.45 255.23-30.45L255.23-30.45ZM249.63-28.2L260.73-28.2 260.73 0 249.63 0 249.63-28.2ZM287.63-19.5L276.38-9.2 288.13-9.2 288.13 0 264.23 0 264.23-8.7 274.98-19 264.38-19 264.38-28.2 287.63-28.2 287.63-19.5ZM318.93-14.35Q318.93-13.2 318.78-12.15L318.78-12.15 300.93-12.15Q301.18-8.5 303.98-8.5L303.98-8.5Q305.78-8.5 306.58-10.15L306.58-10.15 318.33-10.15Q317.73-7.15 315.8-4.78 313.88-2.4 310.95-1.03 308.03 0.35 304.53 0.35L304.53 0.35Q300.33 0.35 297.05-1.4 293.78-3.15 291.95-6.43 290.13-9.7 290.13-14.1L290.13-14.1Q290.13-18.5 291.95-21.78 293.78-25.05 297.05-26.8 300.33-28.55 304.53-28.55L304.53-28.55Q308.73-28.55 312-26.83 315.28-25.1 317.1-21.9 318.93-18.7 318.93-14.35L318.93-14.35ZM301.08-17L307.68-17Q307.68-18.4 306.78-19.13 305.88-19.85 304.53-19.85L304.53-19.85Q301.58-19.85 301.08-17L301.08-17ZM327.93 0.4Q325.03 0.4 323.28-1.15 321.53-2.7 321.53-5.05L321.53-5.05Q321.53-7.45 323.28-9.03 325.03-10.6 327.93-10.6L327.93-10.6Q330.78-10.6 332.53-9.03 334.28-7.45 334.28-5.05L334.28-5.05Q334.28-2.7 332.53-1.15 330.78 0.4 327.93 0.4L327.93 0.4Z" opacity="1" transform="matrix(1,0,0,1,0,0)" fill="#3d4950" class="wordmark-text-0" data-fill-palette-color="primary"></path></svg></g></svg></g></svg></g></svg></g></svg></g></svg></g></svg></g><defs></defs></svg><rect width="395.5199999999999" height="85.25907600398361" fill="none" stroke="none" visibility="hidden"></rect></g></svg></g></svg>